<svg xmlns="http://www.w3.org/2000/svg" width="51.6" height="56.291" viewBox="0 0 51.6 56.291">
  <g id="social-media" transform="translate(-1)">
    <path id="Path_2" data-name="Path 2" d="M7.051,49.714H40.5l-1.6-5.172,3.821,3.279,3.5,3.138,6.38,5.331V5.805A6.226,6.226,0,0,0,46.389,0L7.063.007A5.987,5.987,0,0,0,1,5.817v38.09a5.869,5.869,0,0,0,6.051,5.807Zm24.74-36.385-.077.028.028-.028Zm-17.9,2.976a14.469,14.469,0,0,1,8.284-2.979l.321.317c-5.261,1.255-7.646,3.6-7.646,3.6s.638-.312,1.752-.788a26.783,26.783,0,0,1,21.986.943,19.291,19.291,0,0,0-7.327-3.6l.436-.429a14.482,14.482,0,0,1,8.16,2.955A36.206,36.206,0,0,1,44.185,32.79a12.5,12.5,0,0,1-9.22,4.048s-1.107-1.252-1.9-2.345A9.473,9.473,0,0,0,38.323,31.2,34.516,34.516,0,0,1,35,32.928a22.271,22.271,0,0,1-4.287,1.255c-6.764,1.1-10.562-.739-14.15-2.2l-1.227-.624a9.414,9.414,0,0,0,5.1,3.293c-.964,1.1-1.919,2.35-1.919,2.35-6.534-.155-8.917-4.236-8.917-4.236a36.292,36.292,0,0,1,4.3-16.465Z" transform="translate(0)"/>
    <path id="Path_3" data-name="Path 3" d="M16.044,16.37a3.139,3.139,0,0,0,0-6.274V10.1a3.135,3.135,0,0,0,0,6.267Z" transform="translate(16.17 13.584)"/>
    <path id="Path_4" data-name="Path 4" d="M11.426,16.37a3.139,3.139,0,0,0,.009-6.274l-.009.007a3.135,3.135,0,0,0,0,6.267Z" transform="translate(9.956 13.584)"/>
  </g>
</svg>
