<svg xmlns="http://www.w3.org/2000/svg" width="53.255" height="43.27" viewBox="0 0 53.255 43.27">
  <g id="brands-and-logotypes" transform="translate(0 -48)">
    <g id="Group_1" data-name="Group 1" transform="translate(0 48)">
      <path id="Path_1" data-name="Path 1" d="M53.255,53.123a22.763,22.763,0,0,1-6.291,1.724,10.857,10.857,0,0,0,4.8-6.035,21.819,21.819,0,0,1-6.923,2.643,10.917,10.917,0,0,0-18.886,7.466,11.242,11.242,0,0,0,.253,2.49,30.9,30.9,0,0,1-22.5-11.42A10.921,10.921,0,0,0,7.063,64.582,10.782,10.782,0,0,1,2.13,63.238v.12a10.968,10.968,0,0,0,8.747,10.728,10.9,10.9,0,0,1-2.862.359,9.654,9.654,0,0,1-2.067-.186,11.022,11.022,0,0,0,10.2,7.606A21.937,21.937,0,0,1,2.613,86.52,20.449,20.449,0,0,1,0,86.371a30.737,30.737,0,0,0,16.749,4.9c20.091,0,31.075-16.642,31.075-31.068,0-.483-.017-.949-.04-1.411A21.78,21.78,0,0,0,53.255,53.123Z" transform="translate(0 -48)"/>
    </g>
  </g>
</svg>
